<?xml version="1.0" encoding="utf-8"?>
<!-- Generator: Adobe Illustrator 27.1.1, SVG Export Plug-In . SVG Version: 6.00 Build 0)  -->
<svg version="1.1" id="Layer_1" xmlns="http://www.w3.org/2000/svg" xmlns:xlink="http://www.w3.org/1999/xlink" x="0px" y="0px"
	 viewBox="0 0 996.3 469.2" style="enable-background:new 0 0 996.3 469.2;" xml:space="preserve">
<style type="text/css">
	.st0{fill:#FFFFFF;}
	.st1{fill:none;stroke:#000000;stroke-width:34;stroke-miterlimit:10;}
	.st2{fill:url(#SVGID_1_);}
	.st3{fill:url(#SVGID_00000108276125040456199490000009478548880205607348_);}
	.st4{fill:url(#SVGID_00000173140635689953053770000013298619721411207833_);}
	.st5{fill:url(#SVGID_00000079451462834092506080000004020731698835850880_);}
	.st6{fill-rule:evenodd;clip-rule:evenodd;fill:url(#SVGID_00000157294390218713486320000007995455676052751752_);}
	.st7{fill:url(#SVGID_00000078750554155098360410000010359766447535096964_);}
</style>
<g>
	<g>
		<path class="st0" d="M858.5,25.8l108.9,356.1l-64.3,61.5h-810l-64.3-61.5L137.7,25.8H858.5 M877,0.8h-18.5H137.7h-18.5l-5.4,17.7
			L4.9,374.6l-4.5,14.7L11.6,400l64.3,61.5l7.2,6.9h10h810h10l7.2-6.9l64.3-61.5l11.1-10.6l-4.5-14.7L882.4,18.5L877,0.8L877,0.8z"
			/>
		<polygon class="st1" points="137.7,25.8 858.5,25.8 967.4,381.9 903.1,443.4 93.1,443.4 28.8,381.9 		"/>
	</g>
	
		<linearGradient id="SVGID_1_" gradientUnits="userSpaceOnUse" x1="496.2322" y1="419.6425" x2="501.2437" y2="132.5341" gradientTransform="matrix(1 0 0 -1 0 471.2)">
		<stop  offset="0" style="stop-color:#FAFF61"/>
		<stop  offset="0.55" style="stop-color:#BBF029"/>
		<stop  offset="1" style="stop-color:#63AA22"/>
	</linearGradient>
	<path class="st2" d="M624.1,110.5h16.8c-1.5-13.2-3.1-27.4-4.6-40.5H620c-0.3-3.2-1-9.7-1.3-12.9h-88.5c0.8,29.6,1.6,59.8,2.4,89.4
		h34.5c-0.3-6.5-0.8-15.3-1.2-21.8h59.4L624.1,110.5z M564.5,96.7c-0.2-3.4-0.5-10.1-0.7-13.5h41.1c0.3,3.4,0.9,10.1,1.2,13.5H564.5
		z M480.8,146.4h34.6c-0.2-11.5-0.3-24.4-0.5-35.9h-16.8V96.7h16.6c-0.1-8.4-0.2-18.4-0.4-26.7h-16.2V57h-88.5
		c-2.2,29.6-4.4,59.8-6.5,89.4h34.6c0.3-6.5,0.7-15.3,1-21.8h42.4c-0.1,3.6-0.1,10.8-0.2,14.4L480.8,146.4z M440,96.7
		c0.1-3.4,0.5-10.1,0.6-13.5h41.1c-0.1,3.4-0.1,10.1-0.2,13.5H440z M897.6,313c-12.4-45.3-24.8-91.1-37.2-136.4h-17.7
		c-1-3.8-3-11.5-4-15.3H734c10.2,56.8,20.5,113.9,30.7,170.7h118.4c-1.2-4.7-3.7-14.3-4.9-19H897.6z M815.6,294.4
		c-7.4-33.8-15-68.3-22.4-102.2h17.9c7.9,33.8,15.9,68.3,23.8,102.2H815.6z M848.3,131.8c-2.4-8.8-5.3-19.4-7.7-28.2h-16.7
		c-0.9-3.4-2.7-10.3-3.5-13.7h-57.8l-1.4-6.7h74c-2.2-8.2-4.9-18-7.1-26.2h-88.5c0.6,3.2,1.9,9.7,2.6,12.9h-16.3
		c1.6,8.4,3.4,18.4,5,26.7h16.6c0.7,3.4,2.1,10.4,2.8,13.8h58.8l1.7,7h-76c1.7,9,3.7,19.8,5.4,28.9h95l-4-14.5H848.3z M716.5,110.5
		c-3-17.6-6.2-35.9-9.2-53.5H651c1,8.2,2.3,18,3.3,26.2H679c0.5,3.4,1.5,10.1,2,13.5h-24.9c1.1,8.7,2.4,19.2,3.5,27.9h34l-2.3-14.1
		H716.5z M738.6,294.4h-57.7c-5.6-44.2-11.2-88.9-16.8-133.1h-52.4c4.9,56.8,9.9,113.9,14.8,170.7H745
		C742.9,320.3,740.6,306.2,738.6,294.4z M606,322.5c-2-26.7-4-54.3-5.9-81h-18.5c-0.3-4.2-0.8-12.6-1-16.8h18.3
		c-1.5-20.8-3.1-42.5-4.6-63.3H471.9c-1.1,56.8-2.3,113.9-3.4,170.7h59.2c-0.5-24.1-1-49.3-1.5-73.3H545c0.8,24.1,1.6,49.3,2.4,73.3
		h59.2L606,322.5z M525.6,224.7c-0.2-10.2-0.4-22.3-0.6-32.4h17.9c0.3,10.2,0.7,22.3,1.1,32.4H525.6z M332.1,161.3
		c-7.2,56.8-14.4,113.9-21.6,170.7h138.2c1.9-56.8,3.8-113.9,5.7-170.7H332.1z M399.2,200.2c-2.3,31.2-4.6,63.1-6.9,94.2h-19.2
		c2.9-33.8,5.9-68.3,8.8-102.2h17.9L399.2,200.2z M262.2,161.3c-4.8,26.5-9.6,53.7-14.4,80.1h-18.5c2-10.4,4.4-22.8,6.4-33.2h-36.2
		c-2.3,10.4-5,22.8-7.3,33.2h-18.5c6.1-26.5,12.5-53.7,18.6-80.1h-52.4c-12,44.2-24.2,88.9-36.3,133.1h19.2
		c-3,11.8-6.7,25.8-9.8,37.6h59.2c4-18.1,8.3-37.6,12.2-55.7h38c-3.5,18.1-7.3,37.6-10.7,55.7h59.2c1.8-11.8,3.9-25.8,5.8-37.6h19.2
		c6.2-44.2,12.4-88.9,18.6-133.1H262.2z M272.9,57h-88.5c-0.8,3.2-2.5,9.7-3.4,12.9h-16.2c-5.6,20.4-11.3,41.5-16.9,61.8H165
		c-0.9,3.6-2.8,11-3.8,14.6h95c3-16.2,6.2-33.5,9.3-49.7h-33.2c-1.3,6.2-3.1,14.6-4.4,20.8h-42.2c2.7-11,5.7-23.3,8.4-34.3H268v0.1
		C269.5,75,271.4,65.2,272.9,57z M376.2,69.9c0.3-3.2,1-9.7,1.3-12.9h-72.4c-0.5,3.2-1.6,9.7-2.1,12.9h-16.3
		c-3.5,20.4-7.2,41.5-10.7,61.8h17.1c-0.6,3.6-1.7,11-2.3,14.6h77.7c0.4-3.6,1.1-11,1.4-14.6h17.2c1.8-20.4,3.6-41.5,5.3-61.8H376.2
		z M357.7,89.9c-1,8.6-2.1,19-3.1,27.6h-42.2c1.6-11,3.4-23.3,5-34.3h41.1L357.7,89.9z M897.6,313c-12.4-45.3-24.8-91.1-37.2-136.4
		h-17.7c-1-3.8-3-11.5-4-15.3H734c10.2,56.8,20.5,113.9,30.7,170.7h118.4c-1.2-4.7-3.7-14.3-4.9-19H897.6z M815.6,294.4
		c-7.4-33.8-15-68.3-22.4-102.2h17.9c7.9,33.8,15.9,68.3,23.8,102.2H815.6z M730.9,96.6h16.6c0.7,3.4,2.1,10.4,2.8,13.8h58.8l1.7,7
		h-76c1.7,9,3.7,19.8,5.4,28.9h95l-4-14.5h17.1c-2.4-8.8-5.3-19.4-7.7-28.2h-16.7c-0.9-3.4-2.7-10.3-3.5-13.7h-57.8l-1.4-6.7h74
		c-2.2-8.2-4.9-18-7.1-26.2h-88.5c0.6,3.2,1.9,9.7,2.6,12.9h-16.3C727.5,78.3,729.3,88.3,730.9,96.6z M680.9,294.4
		c-5.6-44.2-11.2-88.9-16.8-133.1h-52.4c4.9,56.8,9.9,113.9,14.8,170.7H745c-2.1-11.7-4.4-25.8-6.4-37.6H680.9z M679,83.2
		c0.5,3.4,1.5,10.1,2,13.5h-24.9c1.1,8.7,2.4,19.2,3.5,27.9h34l-2.3-14.1h25.2c-3-17.6-6.2-35.9-9.2-53.5H651c1,8.2,2.3,18,3.3,26.2
		H679z M567.1,146.5c-0.3-6.5-0.8-15.3-1.2-21.8h59.4l-1.2-14.2h16.8c-1.5-13.2-3.1-27.4-4.6-40.5H620c-0.3-3.2-1-9.7-1.3-12.9
		h-88.5c0.8,29.6,1.6,59.8,2.4,89.4H567.1z M604.9,83.2c0.3,3.4,0.9,10.1,1.2,13.5h-41.6c-0.2-3.4-0.5-10.1-0.7-13.5H604.9z
		 M600.1,241.5h-18.5c-0.3-4.2-0.8-12.6-1-16.8h18.3c-1.5-20.8-3.1-42.5-4.6-63.3H471.9c-1.1,56.8-2.3,113.9-3.4,170.7h59.2
		c-0.5-24.1-1-49.3-1.5-73.3H545c0.8,24.1,1.6,49.3,2.4,73.3h59.2l-0.6-9.6C604,295.8,602,268.2,600.1,241.5z M525.6,224.7
		c-0.2-10.2-0.4-22.3-0.6-32.4h17.9c0.3,10.2,0.7,22.3,1.1,32.4H525.6z M438.7,124.6h42.4c-0.1,3.6-0.1,10.8-0.2,14.4l-0.1,7.4h34.6
		c-0.2-11.5-0.3-24.4-0.5-35.9h-16.8V96.7h16.6c-0.1-8.4-0.2-18.4-0.4-26.7h-16.2V57h-88.5c-2.2,29.6-4.4,59.8-6.5,89.4h34.6
		C438,139.9,438.4,131.1,438.7,124.6z M440.6,83.2h41.1c-0.1,3.4-0.1,10.1-0.2,13.5H440C440.1,93.3,440.5,86.6,440.6,83.2z
		 M310.5,332h138.2c1.9-56.8,3.8-113.9,5.7-170.7H332.1C324.9,218.1,317.7,275.2,310.5,332z M381.9,192.2h17.9l-0.6,8
		c-2.3,31.2-4.6,63.1-6.9,94.2h-19.2C376,260.6,379,226.1,381.9,192.2z M290.8,146.3h77.7c0.4-3.6,1.1-11,1.4-14.6h17.2
		c1.8-20.4,3.6-41.5,5.3-61.8h-16.2c0.3-3.2,1-9.7,1.3-12.9h-72.4c-0.5,3.2-1.6,9.7-2.1,12.9h-16.3c-3.5,20.4-7.2,41.5-10.7,61.8
		h17.1C292.5,135.3,291.4,142.7,290.8,146.3z M317.4,83.2h41.1l-0.8,6.7c-1,8.6-2.1,19-3.1,27.6h-42.2
		C314,106.5,315.8,94.2,317.4,83.2z M262.2,161.3c-4.8,26.5-9.6,53.7-14.4,80.1h-18.5c2-10.4,4.4-22.8,6.4-33.2h-36.2
		c-2.3,10.4-5,22.8-7.3,33.2h-18.5c6.1-26.5,12.5-53.7,18.6-80.1h-52.4c-12,44.2-24.2,88.9-36.3,133.1h19.2
		c-3,11.8-6.7,25.8-9.8,37.6h59.2c4-18.1,8.3-37.6,12.2-55.7h38c-3.5,18.1-7.3,37.6-10.7,55.7h59.2c1.8-11.8,3.9-25.8,5.8-37.6h19.2
		c6.2-44.2,12.4-88.9,18.6-133.1H262.2z M161.2,146.3h95c3-16.2,6.2-33.5,9.3-49.7h-33.2c-1.3,6.2-3.1,14.6-4.4,20.8h-42.2
		c2.7-11,5.7-23.3,8.4-34.3H268v0.1c1.5-8.2,3.4-18,4.9-26.2h-88.5c-0.8,3.2-2.5,9.7-3.4,12.9h-16.2c-5.6,20.4-11.3,41.5-16.9,61.8
		H165C164.1,135.3,162.2,142.7,161.2,146.3z M897.6,313c-12.4-45.3-24.8-91.1-37.2-136.4h-17.7c-1-3.8-3-11.5-4-15.3H734
		c10.2,56.8,20.5,113.9,30.7,170.7h118.4c-1.2-4.7-3.7-14.3-4.9-19H897.6z M815.6,294.4c-7.4-33.8-15-68.3-22.4-102.2h17.9
		c7.9,33.8,15.9,68.3,23.8,102.2H815.6z M730.9,96.6h16.6c0.7,3.4,2.1,10.4,2.8,13.8h58.8l1.7,7h-76c1.7,9,3.7,19.8,5.4,28.9h95
		l-4-14.5h17.1c-2.4-8.8-5.3-19.4-7.7-28.2h-16.7c-0.9-3.4-2.7-10.3-3.5-13.7h-57.8l-1.4-6.7h74c-2.2-8.2-4.9-18-7.1-26.2h-88.5
		c0.6,3.2,1.9,9.7,2.6,12.9h-16.3C727.5,78.3,729.3,88.3,730.9,96.6z M680.9,294.4c-5.6-44.2-11.2-88.9-16.8-133.1h-52.4
		c4.9,56.8,9.9,113.9,14.8,170.7H745c-2.1-11.7-4.4-25.8-6.4-37.6H680.9z M679,83.2c0.5,3.4,1.5,10.1,2,13.5h-24.9
		c1.1,8.7,2.4,19.2,3.5,27.9h34l-2.3-14.1h25.2c-3-17.6-6.2-35.9-9.2-53.5H651c1,8.2,2.3,18,3.3,26.2H679z M567.1,146.5
		c-0.3-6.5-0.8-15.3-1.2-21.8h59.4l-1.2-14.2h16.8c-1.5-13.2-3.1-27.4-4.6-40.5H620c-0.3-3.2-1-9.7-1.3-12.9h-88.5
		c0.8,29.6,1.6,59.8,2.4,89.4H567.1z M604.9,83.2c0.3,3.4,0.9,10.1,1.2,13.5h-41.6c-0.2-3.4-0.5-10.1-0.7-13.5H604.9z M600.1,241.5
		h-18.5c-0.3-4.2-0.8-12.6-1-16.8h18.3c-1.5-20.8-3.1-42.5-4.6-63.3H471.9c-1.1,56.8-2.3,113.9-3.4,170.7h59.2
		c-0.5-24.1-1-49.3-1.5-73.3H545c0.8,24.1,1.6,49.3,2.4,73.3h59.2l-0.6-9.6C604,295.8,602,268.2,600.1,241.5z M525.6,224.7
		c-0.2-10.2-0.4-22.3-0.6-32.4h17.9c0.3,10.2,0.7,22.3,1.1,32.4H525.6z M438.7,124.6h42.4c-0.1,3.6-0.1,10.8-0.2,14.4l-0.1,7.4h34.6
		c-0.2-11.5-0.3-24.4-0.5-35.9h-16.8V96.7h16.6c-0.1-8.4-0.2-18.4-0.4-26.7h-16.2V57h-88.5c-2.2,29.6-4.4,59.8-6.5,89.4h34.6
		C438,139.9,438.4,131.1,438.7,124.6z M440.6,83.2h41.1c-0.1,3.4-0.1,10.1-0.2,13.5H440C440.1,93.3,440.5,86.6,440.6,83.2z
		 M310.5,332h138.2c1.9-56.8,3.8-113.9,5.7-170.7H332.1C324.9,218.1,317.7,275.2,310.5,332z M381.9,192.2h17.9l-0.6,8
		c-2.3,31.2-4.6,63.1-6.9,94.2h-19.2C376,260.6,379,226.1,381.9,192.2z M290.8,146.3h77.7c0.4-3.6,1.1-11,1.4-14.6h17.2
		c1.8-20.4,3.6-41.5,5.3-61.8h-16.2c0.3-3.2,1-9.7,1.3-12.9h-72.4c-0.5,3.2-1.6,9.7-2.1,12.9h-16.3c-3.5,20.4-7.2,41.5-10.7,61.8
		h17.1C292.5,135.3,291.4,142.7,290.8,146.3z M317.4,83.2h41.1l-0.8,6.7c-1,8.6-2.1,19-3.1,27.6h-42.2
		C314,106.5,315.8,94.2,317.4,83.2z M262.2,161.3c-4.8,26.5-9.6,53.7-14.4,80.1h-18.5c2-10.4,4.4-22.8,6.4-33.2h-36.2
		c-2.3,10.4-5,22.8-7.3,33.2h-18.5c6.1-26.5,12.5-53.7,18.6-80.1h-52.4c-12,44.2-24.2,88.9-36.3,133.1h19.2
		c-3,11.8-6.7,25.8-9.8,37.6h59.2c4-18.1,8.3-37.6,12.2-55.7h38c-3.5,18.1-7.3,37.6-10.7,55.7h59.2c1.8-11.8,3.9-25.8,5.8-37.6h19.2
		c6.2-44.2,12.4-88.9,18.6-133.1H262.2z M161.2,146.3h95c3-16.2,6.2-33.5,9.3-49.7h-33.2c-1.3,6.2-3.1,14.6-4.4,20.8h-42.2
		c2.7-11,5.7-23.3,8.4-34.3H268v0.1c1.5-8.2,3.4-18,4.9-26.2h-88.5c-0.8,3.2-2.5,9.7-3.4,12.9h-16.2c-5.6,20.4-11.3,41.5-16.9,61.8
		H165C164.1,135.3,162.2,142.7,161.2,146.3z"/>
	
		<linearGradient id="SVGID_00000126309938882518384740000012409570198288898230_" gradientUnits="userSpaceOnUse" x1="491.8597" y1="19.6187" x2="498.3263" y2="390.09">
		<stop  offset="0" style="stop-color:#EAFF4F"/>
		<stop  offset="0.595" style="stop-color:#B4D626"/>
		<stop  offset="1" style="stop-color:#379220"/>
	</linearGradient>
	<path style="fill:url(#SVGID_00000126309938882518384740000012409570198288898230_);" d="M858.5,25.8H137.7
		c0,0-84.9,277.7-108.9,356.1h938.7L858.5,25.8z M155.9,44.3h684.4c29.3,102.3,58.6,204.9,87.9,307.3H68
		C97.3,249.2,126.6,146.7,155.9,44.3z"/>
	<g>
		<g>
			
				<linearGradient id="SVGID_00000180361966796817089450000011308824098862379692_" gradientUnits="userSpaceOnUse" x1="469.7586" y1="458.8763" x2="456.3314" y2="74.3715" gradientTransform="matrix(1 0 0 -1 0 471.2)">
				<stop  offset="0" style="stop-color:#FFF8C2"/>
				<stop  offset="0.5447" style="stop-color:#E3F056"/>
				<stop  offset="0.7849" style="stop-color:#B8D927"/>
				<stop  offset="1" style="stop-color:#93C527"/>
			</linearGradient>
			<path style="fill:url(#SVGID_00000180361966796817089450000011308824098862379692_);" d="M91,178.6L382.4,25.8h138.9L64.9,263.7
				L91,178.6z M28.8,381.9h307.9L876.5,84.6l-18-58.7H645.9L33.8,365.5L28.8,381.9z M460.7,381.9l432.6-242.3l-6.3-20.4L419.1,381.9
				H460.7z"/>
		</g>
	</g>
	
		<linearGradient id="SVGID_00000163040310361795716020000010808337412803613106_" gradientUnits="userSpaceOnUse" x1="498.0833" y1="426.9" x2="498.0833" y2="119.7" gradientTransform="matrix(1 0 0 -1 0 471.2)">
		<stop  offset="0" style="stop-color:#316900"/>
		<stop  offset="0.676" style="stop-color:#001A0A"/>
	</linearGradient>
	<path style="fill:url(#SVGID_00000163040310361795716020000010808337412803613106_);" d="M840.3,44.3H155.9
		C126.6,146.6,97.3,249.2,68,351.5h860.1C898.9,249.2,869.6,146.6,840.3,44.3z M739.4,57h88.5c2.2,8.2,4.9,18,7.1,26.2h-74l1.4,6.7
		h57.8c0.9,3.4,2.7,10.2,3.5,13.7h16.7c2.4,8.8,5.3,19.4,7.7,28.2H831l1.9,7.3l1.9,7.3h-95c-1.7-9-3.7-19.8-5.4-28.9h76l-1.7-7
		h-58.8c-0.7-3.4-2.1-10.4-2.8-13.8h-16.6c-1.6-8.4-3.4-18.4-5-26.7h16.3C741.3,66.7,740,60.2,739.4,57z M707.2,57
		c3,17.6,6.2,35.9,9.2,53.5h-25.2l1.1,7l1.1,7.1h-34c-1.1-8.7-2.4-19.2-3.5-27.9h24.9c-0.5-3.4-1.5-10.1-2-13.5h-24.7
		c-1-8.2-2.3-18-3.3-26.2C650.8,57,707.2,57,707.2,57z M618.7,57c0.3,3.2,1,9.7,1.3,12.9h16.3c1.5,13.2,3.1,27.4,4.6,40.5h-16.8
		l0.7,7l0.7,7.1h-59.4c0.3,6.5,0.8,15.3,1.2,21.8h-34.5c-0.8-29.6-1.6-59.7-2.4-89.4h88.3V57z M409.6,57h88.5v12.9h16.3
		c0.1,8.4,0.2,18.4,0.4,26.7h-16.7v13.8h16.8c0.2,11.5,0.3,24.4,0.5,35.9h-34.6l0.1-7.3c0-3.6,0.1-10.8,0.2-14.4h-42.5
		c-0.3,6.5-0.7,15.3-1,21.8h-34.5C405.3,116.7,407.5,86.6,409.6,57z M286.8,69.9h16.3c0.5-3.2,1.6-9.7,2.1-12.9h72.4
		c-0.3,3.2-1,9.7-1.3,12.9h16.2c-1.7,20.4-3.6,41.5-5.3,61.8h-17.1c-0.4,3.6-1.1,11-1.4,14.6H291c0.6-3.6,1.7-11,2.3-14.6h-17.2
		C279.6,111.4,283.2,90.3,286.8,69.9z M164.8,69.9h16.3c0.8-3.2,2.5-9.7,3.4-12.9H273c-1.5,8.2-3.3,18-4.9,26.2h-74
		c-2.7,11-5.8,23.3-8.4,34.3h42.2c1.3-6.2,3.1-14.6,4.4-20.8h33.2c-3,16.2-6.2,33.5-9.3,49.7h-95c0.9-3.6,2.8-11,3.8-14.6h-17.1
		C153.5,111.4,159.3,90.3,164.8,69.9z M276.8,294.4c-1.8,11.8-3.9,25.8-5.8,37.6h-59.2c3.5-18.1,7.3-37.6,10.7-55.7h-38
		c-4,18.1-8.2,37.6-12.2,55.7h-59.2c3-11.8,6.7-25.8,9.8-37.6h-19.3c12.1-44.2,24.3-88.9,36.3-133.1h52.4
		c-6.2,26.5-12.5,53.7-18.6,80.1h18.5c2.3-10.4,5-22.8,7.3-33.2h36.2c-2,10.4-4.4,22.8-6.4,33.2h18.5c4.8-26.5,9.6-53.7,14.4-80.1
		h52.4c-6.2,44.2-12.4,88.9-18.6,133.1H276.8z M448.7,332H310.5c7.2-56.8,14.4-113.9,21.6-170.7h122.3
		C452.5,218,450.6,275.2,448.7,332z M547.5,332c-0.8-24.1-1.6-49.2-2.4-73.3h-18.8c0.5,24.1,1,49.2,1.5,73.3h-59.2
		c1.1-56.8,2.3-113.9,3.4-170.7h122.3c1.5,20.8,3.1,42.5,4.6,63.3h-18.3c0.3,4.2,0.8,12.6,1,16.8h18.5c2,26.7,4,54.3,5.9,81l0.7,9.6
		H547.5z M626.4,332c-4.9-56.8-9.9-113.9-14.8-170.7h52.5c5.6,44.2,11.2,88.9,16.8,133.1h57.7c2,11.8,4.3,25.8,6.3,37.6H626.4z
		 M764.6,332c-10.2-56.8-20.5-113.9-30.7-170.7h104.8c1,3.8,3,11.5,4,15.3h17.7c12.3,45.3,24.8,91.1,37.2,136.4h-19.5
		c1.2,4.7,3.7,14.3,4.9,19H764.6z M834.9,294.4h-19.2c-7.4-33.8-15-68.3-22.4-102.2h17.8C818.9,226,827,260.5,834.9,294.4z
		 M606.1,96.7h-41.5c-0.2-3.4-0.5-10.1-0.7-13.5H605C605.2,86.5,605.8,93.3,606.1,96.7z M543.9,224.6h-18.3
		c-0.2-10.2-0.4-22.3-0.6-32.4h17.9C543.1,202.4,543.6,214.5,543.9,224.6z M481.7,83.1c-0.1,3.4-0.1,10.1-0.2,13.5H440
		c0.1-3.4,0.5-10.1,0.6-13.5H481.7z M399.7,192.2l-0.6,8c-2.3,31.2-4.6,63-6.9,94.2H373c2.9-33.8,5.9-68.3,8.8-102.2L399.7,192.2
		L399.7,192.2z M358.4,83.1l-0.8,6.7c-1,8.6-2.1,19-3.1,27.6h-42.2c1.6-11,3.4-23.3,5-34.3H358.4z"/>
	
		<linearGradient id="SVGID_00000080926556329660979180000015794106895710539964_" gradientUnits="userSpaceOnUse" x1="496.8479" y1="113.8276" x2="502.4569" y2="6.8014" gradientTransform="matrix(1 0 0 -1 0 471.2)">
		<stop  offset="0" style="stop-color:#003B02"/>
		<stop  offset="1" style="stop-color:#012400"/>
	</linearGradient>
	
		<polygon style="fill-rule:evenodd;clip-rule:evenodd;fill:url(#SVGID_00000080926556329660979180000015794106895710539964_);" points="
		903.1,443.4 93.1,443.4 28.8,381.9 967.4,381.9 	"/>
	
		<linearGradient id="SVGID_00000114780504319224616080000014782820718246307236_" gradientUnits="userSpaceOnUse" x1="246.2303" y1="93.0947" x2="247.4363" y2="24.0053" gradientTransform="matrix(1 0 0 -1 0 471.2)">
		<stop  offset="0" style="stop-color:#005B06"/>
		<stop  offset="1" style="stop-color:#012600"/>
	</linearGradient>
	<path style="fill:url(#SVGID_00000114780504319224616080000014782820718246307236_);" d="M357.3,443.4H93.1l-64.3-61.5h307.9
		L357.3,443.4z M460.7,381.9h-41.6l9.8,61.5h35.9L460.7,381.9z"/>
</g>
</svg>
