<?xml version="1.0" encoding="utf-8"?>
<!-- Generator: Adobe Illustrator 27.1.1, SVG Export Plug-In . SVG Version: 6.00 Build 0)  -->
<svg version="1.1" id="Layer_1" xmlns="http://www.w3.org/2000/svg" xmlns:xlink="http://www.w3.org/1999/xlink" x="0px" y="0px"
	 viewBox="0 0 800 360.6" style="enable-background:new 0 0 800 360.6;" xml:space="preserve">
<style type="text/css">
	.st0{fill:#FFFFFF;}
</style>
<path class="st0" d="M40.4,243.8H0c10,0,20.2-8.6,20.2-16.6C20.2,235.2,30.4,243.8,40.4,243.8z M53.6,195.1
	c-8,0-16.6,10.2-16.6,20.2c0-10-8.6-20.2-16.6-20.2c8,0,16.6-10.2,16.6-20.2C37,185,45.7,195.1,53.6,195.1z M109.7,243.7H96.4l0,0
	H88c-9.7,0-18.2-6.1-20.7-14.9l-20.8-72.5c-2.2-6.5-9.8-11.3-15.9-11.4l0,0h12.9l0,0h2c12.1,0,22.8,7.5,26.3,18.5l22,70.3
	C96.6,240.7,103.1,243.4,109.7,243.7L109.7,243.7z M184.1,214c0.3,15.8-17.6,29.2-40.2,29.7c-22.6,0.6-41.2-11.8-41.6-27.7
	c-0.1-3.1,0.6-6.3,1.9-9.1l0,0c2,1.6,9.7,8.9,11.8,11.2c-2.1,11.1,3.9,22.7,22.6,21c16.9-1.5,26.7-13,21.4-24.7
	c-3.5-7.6-11-10.5-19.8-12.6c0,0-21.2-3.3-28.4-8c-2.7-1.7-5.6-4-7.6-7.3h0.1c-2.6-3.6-4-7.6-4.2-12c-0.3-15.8,17.6-29.2,40.2-29.6
	c22.6-0.6,41.2,11.8,41.6,27.7c0.1,3.1-0.6,6.3-1.9,9.1l0,0c-2-1.6-9.7-8.9-11.8-11.3c2.1-11.1-3.9-22.7-22.6-21
	c-16.9,1.5-26.7,13-21.4,24.7c3.5,7.6,23,12.6,23,12.6c3.1,0.7,18,3.3,25.1,8c2.7,1.7,5.6,4,7.6,7.3h-0.1
	C182.5,205.6,184,209.6,184.1,214z M279.3,211.6c-6.5,18.7-23.2,32.2-43,32.2c-25.4,0-45.8-22.1-45.8-49.4s20.5-49.4,45.8-49.4
	c13.6,0,25.8,6.4,34.2,16.5h-23.8c-9-10-19.2-14.8-27.3-11.4c-12.9,5.3-15.4,29-5.6,53c9.8,24,28.2,39.3,41,34
	c9.4-3.8,13.2-17.5,10.9-33.9L279.3,211.6z M371.2,226.3v17.3l-57.1,0.1h-9.7c-8.6,0-15.6-7-15.6-15.6v-72.7
	c-1.1-7-6.3-9.9-12.7-10.1l0,0h12.8l0,0h76.2l0.1,17.3c0-3.9-1.3-7.9-3.5-11.2c-1.7-2.7-4.6-4.3-7.7-4.3h-44.9
	c3,2.8,4.8,6.8,4.8,11.3v77.7c0,4.7,2.5,5.9,5.1,5.9h40.9c3.1,0,6.1-1.6,7.7-4.3C369.8,234.2,371.2,230.3,371.2,226.3z M326.7,194.5
	c8,0,16.5-10.1,16.5-20.1v40.1C343.2,204.6,334.7,194.5,326.7,194.5z M468,145.1v98.7h-1.8l0,0h-24.1c0-30.1-47.9-43.5-57.2-84.4
	v84.5h-1.8v-87.7c0-2.1-0.6-4.2-1.7-5.9c-2.4-3.3-6.2-4.8-10.7-5.1l0,0h12.8l0,0H409c0,29.7,47.9,50.1,57.2,86.3v-86.4L468,145.1
	L468,145.1z M562.5,214c0.3,15.8-17.6,29.2-40.2,29.7c-22.6,0.6-41.2-11.8-41.6-27.7c-0.1-3.1,0.6-6.3,1.9-9.1l0,0
	c2,1.6,9.7,8.9,11.8,11.2c-2.1,11.1,3.9,22.7,22.6,21c16.9-1.5,26.7-13,21.4-24.7c-3.5-7.6-11-10.5-19.8-12.6c0,0-21.2-3.3-28.4-8
	c-2.7-1.7-5.6-4-7.6-7.3h0.1c-2.6-3.6-4-7.6-4.2-12c-0.3-15.8,17.6-29.2,40.2-29.6c22.6-0.6,41.2,11.8,41.6,27.7
	c0.1,3.1-0.6,6.3-1.9,9.1l0,0c-2-1.6-9.7-8.9-11.8-11.3c2.1-11.1-3.9-22.7-22.6-21c-16.9,1.5-26.7,13-21.4,24.7
	c3.5,7.6,23,12.6,23,12.6c3.1,0.7,18,3.3,25.1,8c2.7,1.7,5.6,4,7.6,7.3h-0.1C560.9,205.6,562.4,209.6,562.5,214z M599.2,243.5
	L599.2,243.5h-9.7c-8.6,0-15.7-7.1-15.7-15.7v-73c-1.2-6.7-6.4-9.5-12.7-9.9l0,0l22.3-0.1c8.6,0,15.7,7.1,15.7,15.7v72.1
	c0.9,7.4,6.3,10.4,12.8,10.8l0,0h-12.8V243.5z M657.5,145.2c-25.3,0-45.8,22-45.8,49.3c0,27.2,20.4,49.3,45.8,49.3
	s45.7-22,45.7-49.3C703.3,167.3,682.7,145.2,657.5,145.2z M675.1,237.9c-12.9,5.3-31.2-10-41-33.9c-9.8-23.9-7.2-47.6,5.6-52.9
	c12.9-5.3,31.2,10,41,33.9C690.5,208.9,688,232.6,675.1,237.9z M800,145.1v98.7h-1.8l0,0h-24.1c0-30.1-47.9-43.5-57.2-84.4v84.5H715
	v-87.7c0-2.1-0.6-4.2-1.7-5.9c-2.4-3.3-6.2-4.8-10.7-5.1l0,0h12.8l0,0h25.6c0,29.7,47.9,50.1,57.2,86.3v-86.4L800,145.1L800,145.1z
	 M326.4,102.5c0,2.5-1,5.2-2.7,7.5c-3.4,4.7-9.1,7.4-14.9,7.4h-53.1c-2.6,0-5.1-1.1-5.1-5.9l-0.2-75c0-8.6-7-15.6-15.6-15.6h-22.2
	l0,0c6.3,0.3,11.6,3.1,12.6,10.1l0.2,72.6c0,8.6,7,15.6,15.6,15.6h9.7h74.1h22C336.5,119.2,326.4,110.5,326.4,102.5z M400,108.9
	l-22-70.1c-3.5-11-14.1-18.4-26.3-18.4h-2l0,0h-12.9c6.2,0.1,13.7,4.9,15.9,11.4l20.8,72.4c2.5,8.8,11,14.9,20.7,14.9h8.4h13.2
	C409.2,118.7,402.7,116,400,108.9z M343.1,50.4c0,10-8.6,20.2-16.6,20.2c8,0,16.6,10.2,16.6,20.2c0-10,8.6-20.2,16.6-20.2
	C351.7,70.6,343.1,60.3,343.1,50.4z M490,89.4c0.3,15.8-17.6,29.1-40.2,29.6c-22.6,0.6-41.2-11.8-41.5-27.6
	c-0.1-3.1,0.6-6.3,1.9-9.1l0,0c2,1.6,9.7,8.9,11.8,11.2c-2.1,11.1,3.9,22.6,22.6,21c16.8-1.5,26.7-13,21.4-24.6
	c-3.5-7.6-11-10.5-19.8-12.6c0,0-21.2-3.3-28.4-8c-2.7-1.7-5.6-3.9-7.6-7.3h0.1c-2.6-3.6-4-7.6-4-12c-0.3-15.8,17.6-29.1,40.2-29.6
	c22.6-0.6,41.2,11.8,41.5,27.6c0.1,3.1-0.6,6.3-1.9,9.1l0,0c-2-1.6-9.7-8.9-11.8-11.2c2.1-11.1-3.9-22.6-22.6-21
	c-16.8,1.5-26.7,13-21.4,24.6c3.5,7.6,23,12.6,23,12.6c3.1,0.7,18,3.3,25,8c2.7,1.7,5.6,3.9,7.6,7.3h-0.1
	C488.4,81,489.9,85,490,89.4z M587.7,20.4v14.8c-5.1-9.2-20.3-14.7-37.9-14.8H587.7z M573.1,119L573.1,119
	c-6.5-0.3-11.9-3.4-12.8-10.8V36.2c0-8.6-7.1-15.7-15.7-15.7l-22.2,0.1h-29.1v14.9C497.4,28,508.5,23,522,21.3
	c2.6-0.3,5.3,0,7.5,1.2c2.7,1.6,4.7,4.2,5.4,8v72.8c0,8.6,7,15.7,15.7,15.7h9.7l0,0H573.1z M174,344.2h-7.6v-32.9h-0.1l-7.3,32.9
	h-8.1l-7.2-32.9h-0.1v32.9h-7.6v-39.4h12l7.2,31.1h0.1l7.1-31.1h11.9v39.4H174z M241.9,303.8c-5.2,0-18.9,2.2-18.9,20.8
	s13.7,20.8,18.9,20.8s18.9-2.2,18.9-20.8S247,303.8,241.9,303.8z M241.9,338.2c-4.5,0-10.7-2.7-10.7-13.8c0-11,6.3-13.8,10.7-13.8
	c4.5,0,10.7,2.7,10.7,13.8C252.5,335.4,246.2,338.2,241.9,338.2z M327.4,304.8H310v39.4H327c13,0,16.4-12.2,16.4-20.7
	C343.4,316.1,340.7,304.8,327.4,304.8z M326.2,337.3h-8.1v-25.8h7.9c3.5,0,9.1,0.9,9.1,12.6C335,330.6,332.8,337.3,326.2,337.3z
	 M410.4,304.8h-18v39.4h8.2v-14.3h9.4c10.5,0,12.6-9,12.6-12.6C422.7,309.6,418,304.8,410.4,304.8z M408.3,323.1h-7.6v-11.6h6.5
	c5.1,0,7.2,1.6,7.2,5.4C414.4,318.8,414.4,323.1,408.3,323.1z M486.8,304.8h-9.5l-14,39.4h8.6l2.7-8.1h14.6l2.6,8.1h9L486.8,304.8z
	 M476.8,329.3l5.1-15.6h0.1l4.8,15.6H476.8z M571.5,317.7c-0.7-2.4-1.9-6.8-8.8-6.8c-3.9,0-9.8,2.6-9.8,13.8
	c0,7.1,2.8,13.5,9.8,13.5c4.6,0,7.7-2.6,8.8-7.4h8.2c-1.7,8.5-7.2,14.5-17.1,14.5c-10.4,0-18-7.1-18-20.7c0-13.8,8-20.8,18.1-20.8
	c11.8,0,16.6,8.1,16.9,13.9L571.5,317.7L571.5,317.7z M637.6,344.2h-8.2v-39.4h8.2v16l15-16h10.7l-16,16.2l16.9,23.2h-10.5
	l-12.1-17.3l-3.8,3.9v13.4H637.6z"/>
</svg>
