<?xml version="1.0" encoding="utf-8"?>
<!-- Generator: Adobe Illustrator 27.1.1, SVG Export Plug-In . SVG Version: 6.00 Build 0)  -->
<svg version="1.1" id="Layer_1" xmlns="http://www.w3.org/2000/svg" xmlns:xlink="http://www.w3.org/1999/xlink" x="0px" y="0px"
	 viewBox="0 0 512 512" style="enable-background:new 0 0 512 512;" xml:space="preserve">
<style type="text/css">
	.st0{fill-rule:evenodd;clip-rule:evenodd;fill:#4DD66F;}
</style>
<path class="st0" d="M430.3,341.3l39.1,13.9c-28.4,61-82.6,109.3-152.7,128.1C191,517,61.8,442.5,28,316.9c-4-14.6-6.3-29.3-7.4-44
	h39.8c1,10.9,2.9,22,5.9,32.9c3.1,11.5,7.2,22.5,12,32.9l35.5-21.3c-2.9-6.9-5.5-14.1-7.5-21.6c-22.1-82.4,26.9-167.1,109.3-189.2
	c15.6-4.1,31.4-5.8,46.7-5.1l-7.1,40.3c-9.7,0-19.4,1.3-29.2,3.9c-60.9,16.6-97,79.1-80.7,139.9c1,3.8,2.2,7.4,3.5,10.9l45.3-27.2
	L180.7,233l42.9-44l54.2-11.7l15.6,19.3l-25,25.3l-21.8,6.9l-15.5,16l7.6,21.2c0,0,15.4,16.4,15.4,16.5l21.8-5.8l15.5-17l33.9-10.8
	l10.1,22.7l-34.9,42.9l-58.6,18.6l-26.3-29.2l-45.8,27.5c23.5,26.8,58.8,41.6,95.5,38.5l10.6,39.5c-54.6,7.3-108-15.4-141.2-56.9
	l-35.3,21.2c46.5,61.2,127.1,91.4,206,70.4C362.1,428.9,406.4,390.2,430.3,341.3z"/>
<path class="st0" d="M483.3,317.2L444.2,303c6.3-24.7,7.7-51,3.6-77.4l-38.6,10.3c9.2,69.2-29.6,136.2-94.1,162.8l-10.6-39.5
	c49.1-23,76.1-78.5,61.6-132.7c-9.9-37.2-37.2-65.1-70.8-77.4l7.1-40.3c42.6,13.4,78.4,45.1,96.3,88.1l38.7-10.4
	C402.4,94,302,41.2,204.4,67.3C125.2,88.4,70.5,155.1,61,231.6H21.2c9.8-94.2,76.4-177,173.4-203C320.4-5,449.6,69.5,483.3,195.1
	C494.5,236.6,493.7,278.5,483.3,317.2z"/>
</svg>
