<?xml version="1.0" encoding="utf-8"?>
<!-- Generator: Adobe Illustrator 27.1.1, SVG Export Plug-In . SVG Version: 6.00 Build 0)  -->
<svg version="1.1" id="Layer_1" xmlns="http://www.w3.org/2000/svg" xmlns:xlink="http://www.w3.org/1999/xlink" x="0px" y="0px"
	 viewBox="0 0 978 452" style="enable-background:new 0 0 978 452;" xml:space="preserve">
<style type="text/css">
	.st0{fill-rule:evenodd;clip-rule:evenodd;stroke:#000000;stroke-width:34;stroke-miterlimit:10;}
	.st1{fill-rule:evenodd;clip-rule:evenodd;fill:url(#SVGID_1_);}
	.st2{fill:url(#SVGID_00000127744890572351082620000002724087416931234711_);}
	.st3{fill:url(#SVGID_00000017515758824732923710000008749795575066173358_);}
	.st4{fill:url(#SVGID_00000015338979643009335840000011648457920878965161_);}
	.st5{fill:url(#SVGID_00000025444724819269739910000009322200884619690673_);}
</style>
<g>
	<polygon class="st0" points="128.6,17.2 849.4,17.2 958.3,373.3 894,434.8 84,434.8 19.7,373.3 	"/>
	<linearGradient id="SVGID_1_" gradientUnits="userSpaceOnUse" x1="457.5597" y1="255.9519" x2="531.5036" y2="531.9144">
		<stop  offset="0" style="stop-color:#003B02"/>
		<stop  offset="1" style="stop-color:#012400"/>
	</linearGradient>
	<polygon class="st1" points="894,434.8 84,434.8 19.7,373.3 958.3,373.3 	"/>
	
		<linearGradient id="SVGID_00000130625601840098537050000011290605886661360289_" gradientUnits="userSpaceOnUse" x1="482.6769" y1="11.037" x2="489.1429" y2="381.4747">
		<stop  offset="0" style="stop-color:#EAF260"/>
		<stop  offset="0.595" style="stop-color:#B4D626"/>
		<stop  offset="1" style="stop-color:#379220"/>
	</linearGradient>
	<path style="fill:url(#SVGID_00000130625601840098537050000011290605886661360289_);" d="M849.4,17.2H128.6
		c0,0-84.9,277.7-108.9,356.1h938.7L849.4,17.2z M58.9,343c29.3-102.4,58.6-204.9,87.9-307.3h684.4
		c29.3,102.3,58.6,204.9,87.9,307.3H58.9z M367.1,61.3c0.3-3.2,1-9.7,1.3-12.9H296c-0.5,3.2-1.6,9.7-2.1,12.9h-16.3
		c-3.5,20.4-7.2,41.5-10.7,61.8H284c-0.6,3.6-1.7,11-2.3,14.6h77.7c0.4-3.6,1.1-11,1.4-14.6H378c1.8-20.4,3.6-41.5,5.3-61.8H367.1z
		 M348.6,81.3c-1,8.6-2.1,19-3.1,27.6h-42.2c1.6-11,3.4-23.3,5-34.3h41.1L348.6,81.3z M258.9,74.6c1.5-8.2,3.4-18,4.9-26.2h-88.5
		c-0.8,3.2-2.5,9.7-3.4,12.9h-16.2c-5.6,20.4-11.3,41.5-16.9,61.8h17.1c-0.9,3.6-2.8,11-3.8,14.6h95c3-16.2,6.2-33.5,9.3-49.7h-33.2
		c-1.3,6.2-3.1,14.6-4.4,20.8h-42.2c2.7-11,5.7-23.3,8.4-34.3H258.9z M253.1,152.7c-4.8,26.5-9.6,53.7-14.4,80.1h-18.5
		c2-10.4,4.4-22.8,6.4-33.2h-36.2c-2.3,10.4-5,22.8-7.3,33.2h-18.5c6.1-26.5,12.5-53.7,18.6-80.1h-52.4
		c-12,44.2-24.2,88.9-36.3,133.1h19.2c-3,11.8-6.7,25.8-9.8,37.6h59.2c4-18.1,8.3-37.6,12.2-55.7h38c-3.5,18.1-7.3,37.6-10.7,55.7
		h59.2c1.8-11.8,3.9-25.8,5.8-37.6h19.2c6.2-44.2,12.4-88.9,18.6-133.1H253.1z M323,152.7c-7.2,56.8-14.4,113.9-21.6,170.7h138.2
		c1.9-56.8,3.8-113.9,5.7-170.7H323z M390.1,191.6c-2.3,31.2-4.6,63.1-6.9,94.2h-19.2c2.9-33.8,5.9-68.3,8.8-102.2h17.9L390.1,191.6
		z M596.9,313.9c-2-26.7-4-54.3-5.9-81h-18.5c-0.3-4.2-0.8-12.6-1-16.8h18.3c-1.5-20.8-3.1-42.5-4.6-63.3H462.8
		c-1.1,56.8-2.3,113.9-3.4,170.7h59.2c-0.5-24.1-1-49.3-1.5-73.3h18.8c0.8,24.1,1.6,49.3,2.4,73.3h59.2L596.9,313.9z M516.5,216.1
		c-0.2-10.2-0.4-22.3-0.6-32.4h17.9c0.3,10.2,0.7,22.3,1.1,32.4H516.5z M729.5,285.8h-57.7c-5.6-44.2-11.2-88.9-16.8-133.1h-52.4
		c4.9,56.8,9.9,113.9,14.8,170.7h118.5C733.8,311.7,731.5,297.6,729.5,285.8z M682.2,101.9h25.2c-3-17.6-6.2-35.9-9.2-53.5h-56.3
		c1,8.2,2.3,18,3.3,26.2h24.7c0.5,3.4,1.5,10.1,2,13.5h-24.9c1.1,8.7,2.4,19.2,3.5,27.9h34L682.2,101.9z M822.1,123.2h17.1
		c-2.4-8.8-5.3-19.4-7.7-28.2h-16.7c-0.9-3.4-2.7-10.3-3.5-13.7h-57.8l-1.4-6.7h74c-2.2-8.2-4.9-18-7.1-26.2h-88.5
		c0.6,3.2,1.9,9.7,2.6,12.9h-16.3c1.6,8.4,3.4,18.4,5,26.7h16.6c0.7,3.4,2.1,10.4,2.8,13.8h58.8l1.7,7h-76c1.7,9,3.7,19.8,5.4,28.9
		h95L822.1,123.2z M888.5,304.4c-12.4-45.3-24.8-91.1-37.2-136.4h-17.7c-1-3.8-3-11.5-4-15.3H724.9c10.2,56.8,20.5,113.9,30.7,170.7
		H874c-1.2-4.7-3.7-14.3-4.9-19H888.5z M806.5,285.8c-7.4-33.8-15-68.3-22.4-102.2H802c7.9,33.8,15.9,68.3,23.8,102.2H806.5z
		 M471.7,137.8h34.6c-0.2-11.5-0.3-24.4-0.5-35.9H489V88.1h16.6c-0.1-8.4-0.2-18.4-0.4-26.7H489V48.4h-88.5
		c-2.2,29.6-4.4,59.8-6.5,89.4h34.6c0.3-6.5,0.7-15.3,1-21.8H472c-0.1,3.6-0.1,10.8-0.2,14.4L471.7,137.8z M430.9,88.1
		c0.1-3.4,0.5-10.1,0.6-13.5h41.1c-0.1,3.4-0.1,10.1-0.2,13.5H430.9z M615,101.9h16.8c-1.5-13.2-3.1-27.4-4.6-40.5h-16.3
		c-0.3-3.2-1-9.7-1.3-12.9h-88.5c0.8,29.6,1.6,59.8,2.4,89.4h34.5c-0.3-6.5-0.8-15.3-1.2-21.8h59.4L615,101.9z M555.4,88.1
		c-0.2-3.4-0.5-10.1-0.7-13.5h41.1c0.3,3.4,0.9,10.1,1.2,13.5H555.4z"/>
	<g>
		
			<image style="overflow:visible;opacity:0.15;" width="956" height="447" xlink:href="49846290.png"  transform="matrix(1 0 0 1 -16 -18)">
		</image>
		<g>
			
				<linearGradient id="SVGID_00000101093360051837925760000004860491038084921216_" gradientUnits="userSpaceOnUse" x1="451.9464" y1="17.2173" x2="451.9464" y2="373.285">
				<stop  offset="0" style="stop-color:#FFDEC4"/>
				<stop  offset="0.4944" style="stop-color:#E3F056"/>
				<stop  offset="0.7123" style="stop-color:#B8D927"/>
				<stop  offset="1" style="stop-color:#93C527"/>
			</linearGradient>
			<path style="fill:url(#SVGID_00000101093360051837925760000004860491038084921216_);" d="M81.9,170L373.3,17.2l138.9,0
				L55.8,255.1L81.9,170z M19.7,373.3h307.9L867.4,76l-18-58.7H636.8L24.7,356.9L19.7,373.3z M451.6,373.3L884.2,131l-6.3-20.4
				L410,373.3L451.6,373.3z"/>
		</g>
	</g>
	
		<linearGradient id="SVGID_00000121266870464168966230000001581599599901720460_" gradientUnits="userSpaceOnUse" x1="488.999" y1="35.7227" x2="488.999" y2="342.901">
		<stop  offset="0" style="stop-color:#007606"/>
		<stop  offset="0.1496" style="stop-color:#006F06"/>
		<stop  offset="0.3704" style="stop-color:#005B05"/>
		<stop  offset="0.6354" style="stop-color:#013A03"/>
		<stop  offset="0.9323" style="stop-color:#010D01"/>
		<stop  offset="1" style="stop-color:#010200"/>
	</linearGradient>
	<path style="fill:url(#SVGID_00000121266870464168966230000001581599599901720460_);" d="M831.2,35.7H146.8
		C117.5,138,88.2,240.6,58.9,342.9h860.1C889.8,240.6,860.5,138,831.2,35.7z M730.3,48.4h88.5c2.2,8.2,4.9,18,7.1,26.2h-74l1.4,6.7
		h57.8c0.9,3.4,2.7,10.2,3.5,13.7h16.7c2.4,8.8,5.3,19.4,7.7,28.2h-17.1l1.9,7.3l1.9,7.3h-95c-1.7-9-3.7-19.8-5.4-28.9h76l-1.7-7
		h-58.8c-0.7-3.4-2.1-10.4-2.8-13.8h-16.6c-1.6-8.4-3.4-18.4-5-26.7h16.3C732.2,58.1,730.9,51.6,730.3,48.4z M698.1,48.4
		c3,17.6,6.2,35.9,9.2,53.5h-25.2l1.1,7l1.1,7.1h-34c-1.1-8.7-2.4-19.2-3.5-27.9h24.9c-0.5-3.4-1.5-10.1-2-13.5h-24.7
		c-1-8.2-2.3-18-3.3-26.2H698.1z M609.6,48.4c0.3,3.2,1,9.7,1.3,12.9h16.3c1.5,13.2,3.1,27.4,4.6,40.5H615l0.7,7l0.7,7.1h-59.4
		c0.3,6.5,0.8,15.3,1.2,21.8h-34.5c-0.8-29.6-1.6-59.7-2.4-89.4H609.6z M400.5,48.4H489v12.9h16.3c0.1,8.4,0.2,18.4,0.4,26.7H489
		v13.8h16.8c0.2,11.5,0.3,24.4,0.5,35.9h-34.6l0.1-7.3c0-3.6,0.1-10.8,0.2-14.4h-42.5c-0.3,6.5-0.7,15.3-1,21.8H394
		C396.2,108.1,398.4,78,400.5,48.4z M277.7,61.3h16.3c0.5-3.2,1.6-9.7,2.1-12.9h72.4c-0.3,3.2-1,9.7-1.3,12.9h16.2
		c-1.7,20.4-3.6,41.5-5.3,61.8h-17.1c-0.4,3.6-1.1,11-1.4,14.6h-77.7c0.6-3.6,1.7-11,2.3-14.6H267
		C270.5,102.8,274.1,81.7,277.7,61.3z M155.7,61.3H172c0.8-3.2,2.5-9.7,3.4-12.9h88.5c-1.5,8.2-3.3,18-4.9,26.2h-74
		c-2.7,11-5.8,23.3-8.4,34.3h42.2c1.3-6.2,3.1-14.6,4.4-20.8h33.2c-3,16.2-6.2,33.5-9.3,49.7h-95c0.9-3.6,2.8-11,3.8-14.6h-17.1
		C144.4,102.8,150.2,81.7,155.7,61.3z M267.7,285.8c-1.8,11.8-3.9,25.8-5.8,37.6h-59.2c3.5-18.1,7.3-37.6,10.7-55.7h-38
		c-4,18.1-8.2,37.6-12.2,55.7H104c3-11.8,6.7-25.8,9.8-37.6H94.5c12.1-44.2,24.3-88.9,36.3-133.1h52.4
		c-6.2,26.5-12.5,53.7-18.6,80.1h18.5c2.3-10.4,5-22.8,7.3-33.2h36.2c-2,10.4-4.4,22.8-6.4,33.2h18.5c4.8-26.5,9.6-53.7,14.4-80.1
		h52.4c-6.2,44.2-12.4,88.9-18.6,133.1H267.7z M439.6,323.4H301.4c7.2-56.8,14.4-113.9,21.6-170.7h122.3
		C443.4,209.4,441.5,266.6,439.6,323.4z M538.4,323.4c-0.8-24.1-1.6-49.2-2.4-73.3h-18.8c0.5,24.1,1,49.2,1.5,73.3h-59.2
		c1.1-56.8,2.3-113.9,3.4-170.7h122.3c1.5,20.8,3.1,42.5,4.6,63.3h-18.3c0.3,4.2,0.8,12.6,1,16.8H591c2,26.7,4,54.3,5.9,81l0.7,9.6
		H538.4z M617.3,323.4c-4.9-56.8-9.9-113.9-14.8-170.7H655c5.6,44.2,11.2,88.9,16.8,133.1h57.7c2,11.8,4.3,25.8,6.3,37.6H617.3z
		 M755.5,323.4c-10.2-56.8-20.5-113.9-30.7-170.7h104.8c1,3.8,3,11.5,4,15.3h17.7c12.3,45.3,24.8,91.1,37.2,136.4h-19.5
		c1.2,4.7,3.7,14.3,4.9,19H755.5z M825.8,285.8h-19.2c-7.4-33.8-15-68.3-22.4-102.2H802C809.8,217.4,817.9,251.9,825.8,285.8z
		 M597,88.1h-41.5c-0.2-3.4-0.5-10.1-0.7-13.5h41.1C596.1,77.9,596.7,84.7,597,88.1z M534.8,216h-18.3c-0.2-10.2-0.4-22.3-0.6-32.4
		h17.9C534,193.8,534.5,205.9,534.8,216z M472.6,74.5c-0.1,3.4-0.1,10.1-0.2,13.5h-41.5c0.1-3.4,0.5-10.1,0.6-13.5H472.6z
		 M390.6,183.6l-0.6,8c-2.3,31.2-4.6,63-6.9,94.2h-19.2c2.9-33.8,5.9-68.3,8.8-102.2H390.6z M349.3,74.5l-0.8,6.7
		c-1,8.6-2.1,19-3.1,27.6h-42.2c1.6-11,3.4-23.3,5-34.3H349.3z"/>
	
		<linearGradient id="SVGID_00000150818009886429973360000001275989788206680251_" gradientUnits="userSpaceOnUse" x1="235.5025" y1="361.9689" x2="239.9113" y2="446.0941">
		<stop  offset="0" style="stop-color:#005B06"/>
		<stop  offset="1" style="stop-color:#012600"/>
	</linearGradient>
	<path style="fill:url(#SVGID_00000150818009886429973360000001275989788206680251_);" d="M348.2,434.8H84l-64.3-61.5l307.9,0
		L348.2,434.8z M451.6,373.3l-41.6,0l9.8,61.5h35.9L451.6,373.3z"/>
</g>
</svg>
