<?xml version="1.0" encoding="utf-8"?>
<!-- Generator: Adobe Illustrator 27.1.1, SVG Export Plug-In . SVG Version: 6.00 Build 0)  -->
<svg version="1.1" id="Layer_1" xmlns="http://www.w3.org/2000/svg" xmlns:xlink="http://www.w3.org/1999/xlink" x="0px" y="0px"
	 viewBox="0 0 512 514" style="enable-background:new 0 0 512 514;" xml:space="preserve">
<style type="text/css">
	.st0{fill-rule:evenodd;clip-rule:evenodd;fill:#4DD66F;}
	.st1{fill:#4DD66F;}
</style>
<path class="st0" d="M503.2,323.6l-42.6-15.5c6.8-26.9,8.4-55.5,3.9-84.2l-42,11.2c10,75.2-32.2,148.1-102.3,177l-11.5-43
	c53.4-25,82.8-85.4,67-144.3c-10.8-40.4-40.5-70.8-77-84.2l7.7-43.8c46.3,14.6,85.3,49,104.7,95.8l42.1-11.3
	C415.1,80.7,306,23.3,199.8,51.7c-86,23-145.5,95.6-155.8,178.8H0.7C11.4,128.1,83.8,38,189.3,9.8c136.7-36.6,277.2,44.4,313.9,181
	C515.3,235.9,514.5,281.5,503.2,323.6z"/>
<path class="st1" d="M488.1,364.9c-30.9,66.3-89.8,118.9-166.1,139.3c-136.7,36.6-277.2-44.4-313.9-181c-4.3-15.9-6.9-31.9-8.1-47.8
	h43.3c1.1,11.9,3.2,23.9,6.4,35.8c3.4,12.5,7.8,24.5,13.1,35.8l38.6-23.2c-3.2-7.5-6-15.3-8.2-23.5c-24-89.6,29.2-181.7,118.9-205.7
	c17-4.5,34.1-6.3,50.8-5.6l-7.7,43.8c-10.5,0-21.1,1.4-31.7,4.2C157.3,155,118,223,135.8,289.1c1.1,4.1,2.4,8,3.8,11.9l49.3-29.6
	L174.1,232l46.6-47.9l58.9-12.7l17,21l-27.2,27.5l-23.7,7.5l-16.9,17.4l8.3,23.1c0,0,16.8,17.8,16.8,17.9l23.7-6.3l16.9-18.5
	l36.9-11.7l11,24.7l-38,46.6l-63.7,20.2l-28.6-31.8l-49.8,29.9c25.5,29.1,63.9,45.2,103.8,41.9l11.5,43
	c-59.4,7.9-117.4-16.7-153.5-61.9l-38.4,23c50.6,66.5,138.2,99.4,224,76.5c61.7-16.5,109.8-58.6,135.8-111.8L488.1,364.9z"/>
</svg>
